<svg xmlns="http://www.w3.org/2000/svg" viewBox="470 7 316 316"><style>g{fill:#161616}@media(prefers-color-scheme:dark){g{fill:#f5f0e8}}</style><g><path d="m631.96 225.59 c0.027343 -0.058594 0.070312 -0.10156 0.09375 -0.16406 l13.348 -33.27 v33.434 z m-19.496 -22.156 c1.6523 -7.9453 3.5977 -14.535 5.4727 -19.816 l37.145 -35.223 l-30.902 77.195 h-17.168 c2.5586 -8.207 4.2031 -16.133 5.4531 -22.156 m-47.168 52.242 c-6.4727 -0.55469 -11.676 -3.0664 -15.52 -7.4219 l51.227 -48.578 c-0.79297 3.332 -1.6172 6.9727 -2.4609 10.984 c-6.1992 29.438 -18.672 46.312 -33.246 45.016 m194.46 -38.535 l0.64453 7.9766 h-41.305 v-40.832 h-70.531 l14.035 -34.988 c0.37891 -0.94531 -0.72656 -2.168 -1.6055 -3.207 c-0.48828 -0.57422 -1.0156 -1.3711 -1.4688 -1.9062 l42.516 -40.316 l42.102 40.801 h17.883 l-50.941 -49.375 l44.445 -42.145 l-8.918 -8.918 l-44.18 42.672 l-40.867 -39.609 h-17.895 l49.801 48.266 l-29.473 28.465 l-6.1016 -7.043 L542.52 226.32 c-0.13281 -3.4844 0.011719 -7.2305 0.45312 -11.223 l15.598 -14.859 l-13.609 -14.082 l-28.164 28.164 l-7.9805 -0.94141 l-3.2852 4.2266 l2.8164 3.2852 l-32.387 31.449 l13.145 14.078 l42.91 -40.879 c0.125 3 0.33594 6.4102 0.81641 9.9609 l-36.398 34.496 l14.082 15.488 l30.359 -28.789 c4.8594 5.9805 12.422 10.152 24.27 10.152 c13.363 0 22.863 -6.5547 29.73 -15.773 l-1.9805 30.777 h11.266 l1.7578 -34.676 h158.07 l5.8047 34.734 h10.797 l-10.324 -64.773 z"/><path d="m656.23 258.4h69.395c-1.9648 2.4766-3.1875 5.5625-3.1875 8.9609 0 3.4062 1.2305 6.5 3.2031 8.9766h-69.426c1.9766-2.4766 3.207-5.5703 3.207-8.9766 0-3.3984-1.2266-6.4844-3.1914-8.9609m-20.277 8.9609c0-4.9531 4.0234-8.9766 8.9766-8.9766 4.9492 0 8.9766 4.0234 8.9766 8.9766 0 4.9492-4.0273 8.9766-8.9766 8.9766-4.9531 0-8.9766-4.0273-8.9766-8.9766m100.97 8.9766c-4.9492 0-8.9766-4.0273-8.9766-8.9766 0-4.9219 3.9805-8.9102 8.8906-8.9609h0.085938v-0.015625c4.9531 0 8.9805 4.0234 8.9805 8.9766 0 4.9492-4.0273 8.9766-8.9805 8.9766m0-24.43c-0.078126 0-0.15625 0.007813-0.17578 0.019532h-91.352l-0.16016 0.003906c-0.10156-0.011719-0.20313-0.023438-0.30859-0.023438-8.5195 0-15.453 6.9336-15.453 15.453 0 8.3555 6.668 15.184 14.965 15.441v0.007812h92.484c8.5195 0 15.453-6.9297 15.453-15.449s-6.9336-15.453-15.453-15.453"/></g></svg>