<svg xmlns="http://www.w3.org/2000/svg" viewBox="0 0 120 120" fill="none">
  <rect width="120" height="120" rx="28" fill="#021400"/>
  <rect x="0.5" y="0.5" width="119" height="119" rx="27.5" stroke="#22c55e" stroke-opacity="0.3"/>
  <line x1="60" y1="20" x2="60" y2="100" stroke="#22c55e" stroke-width="1.5" stroke-opacity="0.2"/>
  <rect x="18" y="28" width="34" height="10" rx="3" fill="#22c55e" opacity="0.8"/>
  <rect x="18" y="46" width="26" height="10" rx="3" fill="#22c55e" opacity="0.55"/>
  <rect x="18" y="64" width="20" height="10" rx="3" fill="#22c55e" opacity="0.35"/>
  <rect x="18" y="82" width="12" height="10" rx="3" fill="#22c55e" opacity="0.2"/>
  <rect x="90" y="28" width="12" height="10" rx="3" fill="#22c55e" opacity="0.2"/>
  <rect x="82" y="46" width="20" height="10" rx="3" fill="#22c55e" opacity="0.35"/>
  <rect x="76" y="64" width="26" height="10" rx="3" fill="#22c55e" opacity="0.55"/>
  <rect x="68" y="82" width="34" height="10" rx="3" fill="#22c55e" opacity="0.8"/>
  <circle cx="60" cy="60" r="8" fill="#22c55e"/>
  <path d="M56.5 60 L59 62.5 L64 57.5" stroke="#021400" stroke-width="2" stroke-linecap="round" stroke-linejoin="round" fill="none"/>
</svg>
