<svg xmlns="http://www.w3.org/2000/svg" viewBox="0 0 120 120" fill="none">
  <rect width="120" height="120" rx="28" fill="#001417"/>
  <rect x="0.5" y="0.5" width="119" height="119" rx="27.5" stroke="#06b6d4" stroke-opacity="0.3"/>
  <circle cx="44" cy="44" r="14" fill="#06b6d4" opacity="0.9"/>
  <line x1="44" y1="18" x2="44" y2="24" stroke="#06b6d4" stroke-width="2.5" stroke-linecap="round" opacity="0.6"/>
  <line x1="44" y1="64" x2="44" y2="70" stroke="#06b6d4" stroke-width="2.5" stroke-linecap="round" opacity="0.6"/>
  <line x1="18" y1="44" x2="24" y2="44" stroke="#06b6d4" stroke-width="2.5" stroke-linecap="round" opacity="0.6"/>
  <line x1="64" y1="44" x2="70" y2="44" stroke="#06b6d4" stroke-width="2.5" stroke-linecap="round" opacity="0.6"/>
  <line x1="62" y1="26" x2="66" y2="22" stroke="#06b6d4" stroke-width="2.5" stroke-linecap="round" opacity="0.4"/>
  <line x1="26" y1="62" x2="22" y2="66" stroke="#06b6d4" stroke-width="2.5" stroke-linecap="round" opacity="0.4"/>
  <line x1="26" y1="26" x2="22" y2="22" stroke="#06b6d4" stroke-width="2.5" stroke-linecap="round" opacity="0.4"/>
  <rect x="66" y="72" width="10" height="28" rx="2" fill="#06b6d4" opacity="0.35"/>
  <rect x="80" y="60" width="10" height="40" rx="2" fill="#06b6d4" opacity="0.55"/>
  <rect x="94" y="48" width="10" height="52" rx="2" fill="#06b6d4" opacity="0.8"/>
  <rect x="16" y="84" width="40" height="3" rx="1.5" fill="#06b6d4" opacity="0.25"/>
  <rect x="16" y="94" width="40" height="3" rx="1.5" fill="#06b6d4" opacity="0.15"/>
</svg>
